<?xml version="1.0"?>
<svg xmlns="http://www.w3.org/2000/svg" version="1.1" width="600px" height="600px" viewBox="0 0 200 200" style="overflow:hidden!important;">
  <defs id="SvgjsDefs3422">
    <radialGradient id="SvgjsRadialGradient3485" cx="100" cy="114" r="41" gradientUnits="userSpaceOnUse" class="svga-on-canvas-facehighlight-gradient-single-0">
      <stop id="SvgjsStop3486" stop-opacity="0.5" stop-color="#e8d7d3" offset="0"/>
      <stop id="SvgjsStop3487" stop-opacity="0" stop-color="#d9b8af" offset="0.9"/>
    </radialGradient>
    <radialGradient id="SvgjsRadialGradient3489" cx="100" cy="54" r="37" gradientUnits="userSpaceOnUse" class="svga-on-canvas-facehighlight-gradient-single-1">
      <stop id="SvgjsStop3490" stop-opacity="0.5" stop-color="#e8d7d3" offset="0"/>
      <stop id="SvgjsStop3491" stop-opacity="0" stop-color="#d9b8af" offset="0.9"/>
    </radialGradient>
    <radialGradient id="SvgjsRadialGradient3578" cx="-582.838" cy="-519.099" r="59.745" gradientTransform="matrix(0.0991 8.856319e-004 -0.0011 0.0991 131.1134 135.9855)" gradientUnits="userSpaceOnUse" class="svga-on-canvas-eyesiris-gradient-left-2">
      <stop id="SvgjsStop3579" stop-opacity="1" stop-color="#ffffff" offset="0"/>
      <stop id="SvgjsStop3580" stop-opacity="0" stop-color="#ffffff" offset="1"/>
    </radialGradient>
    <linearGradient id="SvgjsLinearGradient3584" x1="122.67" y1="88.268" x2="123.606" y2="87.152" gradientTransform="matrix(1 0 0 1 -52 0)" gradientUnits="userSpaceOnUse" class="svga-on-canvas-eyesiris-gradient-left-5">
      <stop id="SvgjsStop3585" stop-opacity="1" stop-color="#ffffff" offset="0"/>
      <stop id="SvgjsStop3586" stop-opacity="0" stop-color="#ffffff" offset="1"/>
    </linearGradient>
    <linearGradient id="SvgjsLinearGradient3588" x1="127.212" y1="82.296" x2="126.463" y2="83.189" gradientTransform="matrix(1 0 0 1 -52 0)" gradientUnits="userSpaceOnUse" class="svga-on-canvas-eyesiris-gradient-left-6">
      <stop id="SvgjsStop3589" stop-opacity="1" stop-color="#ffffff" offset="0"/>
      <stop id="SvgjsStop3590" stop-opacity="0" stop-color="#ffffff" offset="1"/>
    </linearGradient>
    <linearGradient id="SvgjsLinearGradient3592" x1="129.636" y1="79.822" x2="127.91" y2="81.879" gradientTransform="matrix(1 0 0 1 -52 0)" gradientUnits="userSpaceOnUse" class="svga-on-canvas-eyesiris-gradient-left-7">
      <stop id="SvgjsStop3593" stop-opacity="1" stop-color="#ffffff" offset="0"/>
      <stop id="SvgjsStop3594" stop-opacity="0" stop-color="#ffffff" offset="1"/>
    </linearGradient>
    <radialGradient id="SvgjsRadialGradient3601" cx="-582.833" cy="-519.102" r="59.747" gradientTransform="matrix(0.0991 8.856319e-004 -0.0011 0.0991 183.1126 135.9856)" gradientUnits="userSpaceOnUse" class="svga-on-canvas-eyesiris-gradient-right-2">
      <stop id="SvgjsStop3602" stop-opacity="1" stop-color="#ffffff" offset="0"/>
      <stop id="SvgjsStop3603" stop-opacity="0" stop-color="#ffffff" offset="1"/>
    </radialGradient>
    <linearGradient id="SvgjsLinearGradient3607" x1="122.67" y1="88.268" x2="123.606" y2="87.152" gradientUnits="userSpaceOnUse" class="svga-on-canvas-eyesiris-gradient-right-5">
      <stop id="SvgjsStop3608" stop-opacity="1" stop-color="#ffffff" offset="0"/>
      <stop id="SvgjsStop3609" stop-opacity="0" stop-color="#ffffff" offset="1"/>
    </linearGradient>
    <linearGradient id="SvgjsLinearGradient3611" x1="127.212" y1="82.296" x2="126.463" y2="83.189" gradientUnits="userSpaceOnUse" class="svga-on-canvas-eyesiris-gradient-right-6">
      <stop id="SvgjsStop3612" stop-opacity="1" stop-color="#ffffff" offset="0"/>
      <stop id="SvgjsStop3613" stop-opacity="0" stop-color="#ffffff" offset="1"/>
    </linearGradient>
    <linearGradient id="SvgjsLinearGradient3615" x1="129.636" y1="79.822" x2="127.91" y2="81.879" gradientUnits="userSpaceOnUse" class="svga-on-canvas-eyesiris-gradient-right-7">
      <stop id="SvgjsStop3616" stop-opacity="1" stop-color="#ffffff" offset="0"/>
      <stop id="SvgjsStop3617" stop-opacity="0" stop-color="#ffffff" offset="1"/>
    </linearGradient>
    <linearGradient id="SvgjsLinearGradient3623" x1="100" y1="142" x2="100" y2="139" gradientUnits="userSpaceOnUse" class="svga-on-canvas-mouth-gradient-single-0">
      <stop id="SvgjsStop3624" stop-opacity="1" stop-color="#d1a99e" offset="0.1"/>
      <stop id="SvgjsStop3625" stop-opacity="1" stop-color="#ca9b8e" offset="1"/>
    </linearGradient>
    <radialGradient id="SvgjsRadialGradient3675" cx="127.199" cy="84.835" r="14" gradientTransform="matrix(-1 0 0 1 200 0)" gradientUnits="userSpaceOnUse" class="svga-on-canvas-eyesback-gradient-left-0">
      <stop id="SvgjsStop3676" stop-opacity="1" stop-color="#ffffff" offset="0"/>
      <stop id="SvgjsStop3677" stop-opacity="1" stop-color="#fdfefe" offset="0.544"/>
      <stop id="SvgjsStop3678" stop-opacity="1" stop-color="#f6f8f9" offset="0.74"/>
      <stop id="SvgjsStop3679" stop-opacity="1" stop-color="#eaeff2" offset="0.879"/>
      <stop id="SvgjsStop3680" stop-opacity="1" stop-color="#d9e3e8" offset="0.992"/>
      <stop id="SvgjsStop3681" stop-opacity="1" stop-color="#d8e2e7" offset="1"/>
    </radialGradient>
    <radialGradient id="SvgjsRadialGradient3683" cx="126.801" cy="84.835" r="14" gradientUnits="userSpaceOnUse" class="svga-on-canvas-eyesback-gradient-right-0">
      <stop id="SvgjsStop3684" stop-opacity="1" stop-color="#ffffff" offset="0"/>
      <stop id="SvgjsStop3685" stop-opacity="1" stop-color="#fdfefe" offset="0.544"/>
      <stop id="SvgjsStop3686" stop-opacity="1" stop-color="#f6f8f9" offset="0.74"/>
      <stop id="SvgjsStop3687" stop-opacity="1" stop-color="#eaeff2" offset="0.879"/>
      <stop id="SvgjsStop3688" stop-opacity="1" stop-color="#d9e3e8" offset="0.992"/>
      <stop id="SvgjsStop3689" stop-opacity="1" stop-color="#d8e2e7" offset="1"/>
    </radialGradient>
    <radialGradient id="SvgjsRadialGradient3691" cx="127.199" cy="84.835" r="14" gradientTransform="matrix(-1 0 0 1 200 0)" gradientUnits="userSpaceOnUse" class="svga-on-canvas-eyesfront-gradient-left-0">
      <stop id="SvgjsStop3692" stop-opacity="1" stop-color="#ffffff" offset="0"/>
      <stop id="SvgjsStop3693" stop-opacity="1" stop-color="#fdfefe" offset="0.544"/>
      <stop id="SvgjsStop3694" stop-opacity="1" stop-color="#f6f8f9" offset="0.74"/>
      <stop id="SvgjsStop3695" stop-opacity="1" stop-color="#eaeff2" offset="0.879"/>
      <stop id="SvgjsStop3696" stop-opacity="1" stop-color="#d9e3e8" offset="0.992"/>
      <stop id="SvgjsStop3697" stop-opacity="1" stop-color="#d8e2e7" offset="1"/>
    </radialGradient>
    <radialGradient id="SvgjsRadialGradient3701" cx="125.36" cy="83.943" fx="138.934" fy="82.45" r="18.705" gradientTransform="matrix(0.9998 0.0208 0.0131 -0.6281 -51.791 134.0611)" gradientUnits="userSpaceOnUse" class="svga-on-canvas-eyesfront-gradient-left-3">
      <stop id="SvgjsStop3702" stop-opacity="1" stop-color="#ca9b8e" offset="0"/>
      <stop id="SvgjsStop3703" stop-opacity="0.3" stop-color="#ca9b8e" offset="0.7"/>
      <stop id="SvgjsStop3704" stop-opacity="0" stop-color="#d9b8af" offset="1"/>
    </radialGradient>
    <radialGradient id="SvgjsRadialGradient3706" cx="67.679" cy="106.859" r="29.505" gradientTransform="matrix(1.0322 -0.0541 0.0541 1.0322 -5.894 5.3941)" gradientUnits="userSpaceOnUse" class="svga-on-canvas-eyesfront-gradient-left-4">
      <stop id="SvgjsStop3707" stop-opacity="0" stop-color="#000000" offset="0.95"/>
      <stop id="SvgjsStop3708" stop-opacity="0.2" stop-color="#000000" offset="1"/>
    </radialGradient>
    <radialGradient id="SvgjsRadialGradient3712" cx="126.801" cy="84.835" r="14" gradientUnits="userSpaceOnUse" class="svga-on-canvas-eyesfront-gradient-right-0">
      <stop id="SvgjsStop3713" stop-opacity="1" stop-color="#ffffff" offset="0"/>
      <stop id="SvgjsStop3714" stop-opacity="1" stop-color="#fdfefe" offset="0.544"/>
      <stop id="SvgjsStop3715" stop-opacity="1" stop-color="#f6f8f9" offset="0.74"/>
      <stop id="SvgjsStop3716" stop-opacity="1" stop-color="#eaeff2" offset="0.879"/>
      <stop id="SvgjsStop3717" stop-opacity="1" stop-color="#d9e3e8" offset="0.992"/>
      <stop id="SvgjsStop3718" stop-opacity="1" stop-color="#d8e2e7" offset="1"/>
    </radialGradient>
    <radialGradient id="SvgjsRadialGradient3722" cx="124.961" cy="83.943" fx="138.535" fy="82.45" r="18.705" gradientTransform="matrix(-0.9998 0.0208 -0.0131 -0.6281 250.9922 134.0695)" gradientUnits="userSpaceOnUse" class="svga-on-canvas-eyesfront-gradient-right-3">
      <stop id="SvgjsStop3723" stop-opacity="1" stop-color="#ca9b8e" offset="0"/>
      <stop id="SvgjsStop3724" stop-opacity="0.3" stop-color="#ca9b8e" offset="0.7"/>
      <stop id="SvgjsStop3725" stop-opacity="0" stop-color="#d9b8af" offset="1"/>
    </radialGradient>
    <radialGradient id="SvgjsRadialGradient3727" cx="68.065" cy="106.876" r="29.506" gradientTransform="matrix(-1.0322 -0.0541 -0.0541 1.0322 205.8938 5.3986)" gradientUnits="userSpaceOnUse" class="svga-on-canvas-eyesfront-gradient-right-4">
      <stop id="SvgjsStop3728" stop-opacity="0" stop-color="#000000" offset="0.95"/>
      <stop id="SvgjsStop3729" stop-opacity="0.2" stop-color="#000000" offset="1"/>
    </radialGradient>
    <linearGradient id="SvgjsLinearGradient3734" x1="127.637" y1="79.822" x2="125.91" y2="81.88" gradientTransform="matrix(1 0 0 1 -50 0)" gradientUnits="userSpaceOnUse" class="svga-on-canvas-eyesiris-gradient-left-1">
      <stop id="SvgjsStop3735" stop-opacity="1" stop-color="#ffffff" offset="0"/>
      <stop id="SvgjsStop3736" stop-opacity="0" stop-color="#ffffff" offset="1"/>
    </linearGradient>
    <linearGradient id="SvgjsLinearGradient3739" x1="129.637" y1="79.823" x2="127.91" y2="81.881" gradientUnits="userSpaceOnUse" class="svga-on-canvas-eyesiris-gradient-right-1">
      <stop id="SvgjsStop3740" stop-opacity="1" stop-color="#ffffff" offset="0"/>
      <stop id="SvgjsStop3741" stop-opacity="0" stop-color="#ffffff" offset="1"/>
    </linearGradient>
    <linearGradient id="SvgjsLinearGradient3766" x1="100" y1="172" x2="100" y2="123" gradientUnits="userSpaceOnUse" class="svga-on-canvas-chinshadow-gradient-single-0">
      <stop id="SvgjsStop3767" stop-opacity="0.8" stop-color="#ca9b8e" offset="0"/>
      <stop id="SvgjsStop3768" stop-opacity="1" stop-color="#ab6957" offset="0.7"/>
    </linearGradient>
  </defs>
  <g id="svga-group-wrapper">
    <g id="svga-group-backs-single">
      <path id="SvgjsPath3639" d="M225,225H-25V-25h250V225z" fill="#547980" stroke-width="none" opacity="1" stroke="none"/>
      <path id="SvgjsPath3640" d="M225,66.045V46.523c-8.393-7.17-16.444-14.676-24.006-22.532C206.423,16.09,215.705,4.264,225,0.533v-16.039c-3.896,1.01-7.948,3.157-10.891,4.849c-9.592,5.514-16.968,14.41-23.396,23.297C180.981,1.161,172.431-11.375,166.43-25h-16.256c7.101,18.589,18.696,35.418,31.924,50.498c-3.762,6.007-7.353,12.13-11.097,18.132c-6.771,10.854-13.008,21.979-18.061,33.713c-1.74-0.122-3.482-0.236-5.227-0.348c-0.102-11.296-1.301-22.637-2.591-33.427C142.364,20.495,137.825-2.268,133.128-25h-15.287c3.512,16.925,6.991,33.854,9.757,50.925c2.627,16.216,5.104,33.229,5.117,49.989c-17.066-1.536-33.684-4.704-47.991-15.619c-22.846-17.429-21.9-26.78-25.009-40.538C68.462,4.662,80.021-9.181,83.404-25H67.848c-2.288,7.421-6.745,14.566-10.568,20.732c-1.766,2.849-3.54,5.708-5.319,8.565C41.416-4.602,16.985-1.963,3.134-5.856c-8.089-2.274-17.358-7.185-25.183-11.213c-0.973-0.501-1.96-1.017-2.951-1.55v16.811c7.296,3.502,14.678,6.469,20.881,9.151c12.571,5.436,27.6,2.613,42.814,7.009c2.774,0.801,3.976,1.791,4.725,3.446C37.528,26.922,30.89,33.68,18.638,36.037C6.717,38.331-9.568,36.45-25,35.374V50.51c14.17,0.911,30.442,2.151,42.378,0.754c12.875-1.506,23.256-6.821,30.822-14.903c3.926,13.052,9.926,23.987,32.905,39.741c15.079,10.337,32.932,13.381,50.891,14.876c-2.058,20.178-10.428,37.32-32.693,54.405c-10.407,7.985-21.317,14.728-34.237,24.035c-2.063-0.633-4.131-1.247-6.204-1.832c-14.62-4.125-46.417-6.59-53.1-6.965c8.508-6.75,17.07-13.123,22.152-23.144c11.073-21.834,0.773-48.529-17.324-59.654C2.211,72.673-11.466,69.181-25,64.823v15.465c6.097,2.013,12.208,3.99,18.242,6.175c3.371,1.221,7.316,2.72,10.326,4.67c-1.389-0.644,14.647,9.087,13.954,28.72c-0.661,18.694-21.119,26.841-34.167,41.017c-2.763,0.267-5.568,0.658-8.354,1.198V225h8.315c-2.877-17.495-2.37-34.53,8.331-50.064c8.69-0.111,43.984,2.377,59.317,6.059C37.81,193.899,34.342,209.025,34.122,225H48.77c0.262-8.053,1.59-15.874,5.038-23.062c3.074-6.407,8.375-11.441,14.043-15.887c6.325,2.192,12.58,4.603,18.827,6.916c21.501,7.963,39.663-16.236,68.072-27.625c0.472-0.189,0.954-0.367,1.429-0.554c10.135,21.642,24.926,41.005,40.126,60.211H215.3c-16.396-20.788-33.895-42.817-44.951-65.021c25.817-7.328,33.013-2.973,40.158,3.964c5.458,5.298,10.602,12.362,14.493,20.076v-26.446c-0.996-1.161-2.006-2.287-3.028-3.367c-7.024-7.418-15.717-12.491-26.009-13.126c-10.466-0.645-21.483,2.115-31.569,5.142c-7.333-20.176-7.046-36.563-1.767-53.077c15.35,1.577,40.417,6.625,48.157,20.097c5.229,9.103,8.712,18.285,14.216,28.972v-34.389c-1.05-1.908-2.147-3.734-3.344-5.472c-10.035-14.583-35.667-21.38-53.283-23.575c5.96-12.576,12.812-22.861,24.354-41.835C202.896,47.331,213.716,56.986,225,66.045z M147.094,92c0.152,0.009,0.306,0.019,0.459,0.028c-0.258,0.887-0.503,1.777-0.737,2.671C146.924,93.802,147.006,92.901,147.094,92z M109.519,173.981c-4.553,2.729-9.252,6.184-14.766,5.801c-3.813-0.264-8.413-2.824-12.214-4.384c23.267-16.107,52.827-33.469,61.801-67.581c-1.749,15.194,0.747,28.782,6.11,43.354C135.916,157.305,124.394,165.065,109.519,173.981z" fill="#3f6971" stroke-width="none" opacity="1" stroke="none"/>
    </g>
    <g id="svga-group-humanwrap-move" transform="matrix(1,0,0,1,0,0)">
      <g id="svga-group-humanwrap" transform="matrix(1,0,0,1,0,0)">
        <g id="svga-group-hair-back-move" transform="matrix(1,0,0,1,0,0)">
          <g id="svga-group-hair-back" transform="matrix(1,0,0,1,0,0)">
            <path id="SvgjsPath3652" d="M100.5,100.5h-1v-1h1V100.5z" fill="#ddbc9b" stroke-width="none" opacity="1" stroke="none"/>
          </g>
        </g>
        <g id="svga-group-humanbody-single">
          <path id="SvgjsPath3492" d="M195.417 199.778c-2.196-4.746-8.195-11.779-14.86-13.722 -8.239-2.403-26.837-5.308-33.733-6.923 -5.528-1.296-16.662-11.294-20.564-14.65 -0.7-0.6-1.273-1.839-1.287-2.76 -0.139-10.864 4.195-39.724 4.195-39.724H100 70.833c0 0 4.334 28.859 4.193 39.724 -0.011 0.921-0.587 2.16-1.285 2.76 -3.902 3.356-15.036 13.354-20.564 14.65 -6.897 1.615-25.495 4.619-33.733 7.022 -6.667 1.942-12.664 8.876-14.86 13.622 -3.708 8.008-4.584 22.5-4.584 35h100 100C200 222.278 199.123 207.786 195.417 199.778z" fill="#d9b8af" stroke-width="none" opacity="1" stroke="none"/>
          <path id="SvgjsPath3493" d="M159.156 184.058c24.342 3.542 34.586 8.708 37.794 50.721H200c0-12.5-0.877-26.992-4.583-35 -2.196-4.746-8.195-11.779-14.86-13.722 -8.239-2.403-26.837-5.308-33.733-6.923 -5.528-1.296-18.242-12.069-21.643-16.35 3.36 4.704 12.791 15.605 21.054 18.46C150.188 182.61 153.48 183.232 159.156 184.058zM53.766 181.244c8.263-2.854 17.693-13.756 21.054-18.46 -3.4 4.28-16.114 15.054-21.643 16.35 -6.896 1.615-25.494 4.619-33.733 7.022 -6.665 1.942-12.664 8.876-14.86 13.622 -3.706 8.008-4.583 22.5-4.583 35h3.05c3.188-41.744 13.475-47.183 37.794-50.721C46.52 183.232 49.813 182.61 53.766 181.244z" fill="#e8d7d3" stroke-width="none" opacity="1" stroke="none"/>
          <path id="SvgjsPath3494" d="M95.646 197.62c0 0-5.074-1.609-7.083-2.379 -10.449-4.009-44.395-6.607-44.395-6.607s35.754 1.419 43.644 2.779c-0.458-4.767-3.017-20.004-3.017-20.004s5.149 16.815 6.409 21.057C91.878 194.734 95.646 197.62 95.646 197.62zM106.445 196.278c-0.089 0.073-0.191 0.168-0.302 0.268C106.256 196.461 106.358 196.372 106.445 196.278zM95.646 197.62c0 0 2.893 2.992 4.347 3.03 1.91 0.051 4.828-2.899 6.151-4.104 -1.265 0.957-4.159 1.391-5.31 1.436C99.504 198.033 95.646 197.62 95.646 197.62zM116.664 190.101c-1.545 0.248-4.386 0.789-4.386 0.789l2.287-14.89c-0.646 3.071-4.474 16.211-8.12 20.278 1.91-1.616 6.158-2.391 8.324-2.704 10.236-1.484 10.232-1.483 41.062-4.94C155.831 188.634 126.76 188.479 116.664 190.101z" fill="#ca9b8e" stroke-width="none" opacity="1" stroke="none"/>
          <path id="SvgjsPath3495" d="M195.417 199.778c-2.196-4.746-8.195-11.779-14.86-13.722 -8.239-2.403-26.837-5.308-33.733-6.923 -5.528-1.296-16.662-11.294-20.564-14.65 -0.7-0.6-1.273-1.839-1.287-2.76 -0.139-10.864 4.195-39.724 4.195-39.724H100 70.833c0 0 4.334 28.859 4.193 39.724 -0.011 0.921-0.587 2.16-1.285 2.76 -3.902 3.356-15.036 13.354-20.564 14.65 -6.897 1.615-25.495 4.619-33.733 7.022 -6.667 1.942-12.664 8.876-14.86 13.622 -3.708 8.008-4.584 22.5-4.584 35h100 100C200 222.278 199.123 207.786 195.417 199.778z" fill="none" stroke="#ab6957" stroke-width="1.5" opacity="1"/>
        </g>
        <g id="svga-group-chinshadow-single">
          <path id="SvgjsPath3765" d="M75.517 163.052c6.979 4.54 16.307 8.814 24.485 8.814 7.828 0 17.345-4.309 24.458-8.869 -0.145-0.428-0.233-0.862-0.239-1.264 -0.126-9.877 3.345-34.021 4.076-38.983H71.703c0.73 4.963 4.202 29.106 4.074 38.982C75.772 162.146 75.676 162.603 75.517 163.052z" fill="url(#SvgjsLinearGradient3766)" opacity="1"/>
        </g>
        <g id="svga-group-clothes-single">
          <path id="SvgjsPath3750" d="M204.771 234.683c-25.073-0.247-64.243-0.011-96.057 0.107l3.764-34.23c0.389-8.876 4.307-11.191 6.412-16.545 8.523-21.672 5.125-15.237 7.986-33.135 9.692 1.334 17.243 21.017 24.338 23.615 -0.013 0.428-0.331 2.404-0.756 4.897C187.119 186.985 200 178.735 204.771 234.683zM93.475 200.708c-1.059-3.137-5.48-7.747-7.551-10.751 -3.566-5.185-6.529-10.696-10.881-23.596 -0.007-0.147-0.702-11.408-1.848-16.205 -5.765 2.713-4.729 7.144-13.599 17.518 -1.859 2.164-5.543 2.829-9.259 5.004 -0.191 2.096-0.221 3.92-0.15 5.647 -9.297 1.408-35.372 7.032-44.861 14.346 -4.399 10.161-14.504 29.002-12.896 42.922 28.234-0.305 71.192-0.595 107.381-0.803 0 0 1.301-19.904-6.86-34.308C93.133 200.552 93.31 200.625 93.475 200.708z" fill="#864025" stroke-width="none" opacity="1" stroke="none"/>
          <path id="SvgjsPath3751" d="M50.767 179.432c-19.906 5.692-32.87 9.836-42.029 15.092 -4.175 7.794-11.07 18.835-14.845 40.267 -0.052 0.001-0.968-0.093-1.021-0.093 0.093-17.071 7.793-30.803 12.432-41.844 10.206-8.257 32.288-12.34 44.999-14.381C50.34 178.543 50.731 179.366 50.767 179.432zM150.498 179.568c12.711 2.041 31.496 4.167 42.121 10.917 7.375 11.125 11.428 26.836 11.521 43.907 -0.052 0-0.968 0.094-1.021 0.093 -3.774-21.432-8.325-33.206-12.5-41 -9.159-5.256-20.679-7.266-40.585-12.958C150.07 180.462 150.461 179.639 150.498 179.568z" fill="#955238" stroke-width="none" opacity="1" stroke="none"/>
          <path id="SvgjsPath3752" d="M119.635 201.16c-1.72-0.976-4.987-1.16-7.002 0.596 0.596-1.756 2.792-3.204 5.675-3.524 9.016 1.769 19.906 13.866 30.706 18.396C138.306 214.798 127.818 205.804 119.635 201.16zM93.667 202.167L92.479 200c-2.057 0.038-6.953 0.482-9.014 2.309 -9.292 8.233-24.119 12.352-30.718 16.655C86.703 209.902 80.203 202.736 93.667 202.167z" fill="#672208" stroke-width="none" opacity="1" stroke="none"/>
          <path id="SvgjsPath3753" d="M115.619 198.985c-1.493 0.426-3.061 1.553-3.142 1.574 0.389-8.876 4.307-11.191 6.412-16.545 8.523-21.672 5.125-15.237 7.986-33.135 1.941 0.266 3.798 1.415 5.582 3.085 -1.227 9.5-3.84 17-7.646 25.567 4.461-2.522 9.298-5.611 13.672-8.026C129.391 179.69 118.516 187.081 115.619 198.985zM93.475 200.708c-1.059-3.137-5.48-7.747-7.551-10.751 -3.566-5.185-6.529-10.696-10.881-23.596 -0.007-0.147-0.702-11.408-1.848-16.205 -3.646 1.714-3.34 2.955-5.771 7.11 1.958 10.127 5.915 16.565 11.527 24.985 -4.784-3.154-11.462-8.545-18.071-11.847 11.134 8.348 21.139 18.74 28.653 29.804C91.972 199.465 92.066 200.003 93.475 200.708z" fill="#773015" stroke-width="none" opacity="1" stroke="none"/>
          <path id="SvgjsPath3754" d="M193.414 189.487c-8.551-5.06-23.349-8.462-42.541-10.779 0.263-2.481 0.451-4.26 0.454-4.287 -7.108-2.46-15.008-22.473-24.872-23.66 -7.303 44.887-11.722 29.555-15.365 49.24 -0.662 3.579-2.853 32.529-2.965 33.917 -2.574 0.003-5.149 0.006-7.725 0.01 0.547-17.962-6.32-32.084-6.74-32.994 -0.877-3.118-5.549-7.995-7.646-11.038 -5.437-7.907-7.91-15.09-10.862-23.54 0 0-0.482-11.635-1.662-16.356 -5.941 2.726-5.056 6.065-13.979 16.499 -2.523 2.937-5.948 4.17-9.286 6.17 -0.173 1.899-0.199 3.705-0.135 5.452 -34.277 4.349-41.74 11.957-45.889 13.782 -2.94 9.523-12.333 23.334-12.421 43.842 29.629 0 34.064 0.401 123.482 0.081 13.869-0.059 27.733-0.134 41.604-0.223 20.477-0.12 48.669 0.467 48.669 0.467C205.536 214.739 200.869 201.902 193.414 189.487zM117.634 186.921c6.985-13.686 6.985-16.936 9.68-35.623 8.454 2.822 16.191 20.952 23.12 23.187 -4.939 25.516-2.263 35.379-1.91 41.354 -2.575-1.386-4.559-2.651-7.061-4.148 -7.721-4.629-13.066-10.239-21.258-13.583 -2.219-0.936-5.408 0.459-7.36 1.894C113.922 190.583 115.012 192.058 117.634 186.921zM119.286 198.722c0.002-0.015 0.005-0.027 0.007-0.041C119.565 198.637 119.409 198.677 119.286 198.722zM112.756 202.773c0.389-1.978 3.374-3.115 4.863-3.621 -1.926 8.558-4.446 20.08-4.495 34.762 -1.249 0.001-2.499 0.002-3.749 0.003C109.483 232.632 111.173 210.838 112.756 202.773zM98.931 233.931c-0.79 0.001-1.579 0.003-2.369 0.004 1.111-12.801-5.605-23.81-8.693-33.038 0.806-0.082 3.21-0.736 3.875-0.622C93.387 201.514 100.999 221.875 98.931 233.931zM60.03 167.448c9.546-10.978 7.557-13.666 12.843-16.896 0.331 3.15 0.595 6.323 0.761 9.506 0.563 11.263-0.939 3.57 3.492 15.177 6.513 17.058 12.336 18.518 15.318 24.367 -10.575-0.741-12.118 7.192-21.631 10.363 -8.755 3.447-6.354 1.844-18.373 8.736 3.358-23.819-1.74-34.836-1.74-45.571C54.159 171.341 57.48 170.367 60.03 167.448zM-6.797 234.569c1.667-20.667 9.704-34.022 13-41.333 4.645-2.986 20.026-10.925 43.921-14.394 0.336 6.598 1.925 12.369 2.053 18.93 0.238 6.276 0.213 14.08-0.253 21.732 4.45-2.042 8.725-4.477 13.68-6.258 13.805-5.006 11.434-6.111 18.043-10.674 1.583-1.104 1.344-1.118 2.722-1.463 2.565 7.987 10.662 18.897 8.807 32.827C59.931 234.008 24.849 234.226-6.797 234.569zM114.609 233.914c-0.317-12.454 2.644-23.005 4.664-35.122 4.855 0.064 18.32 13.418 30.146 18.427 0.271-4.209-0.175-12.976-0.175-22.733 -0.004-0.29 0.911-8.994 1.529-14.842 11.277 3.239 29.571 3.27 41.841 11.982 4.922 9.443 10.851 20.048 11.255 42.61C175.918 234.002 145.432 233.899 114.609 233.914z" fill="#581900" stroke-width="none" opacity="1" stroke="none"/>
        </g>
        <g id="svga-group-head" transform="matrix(1,0,0,1,0,0)">
          <g id="svga-group-ears-left-move" transform="matrix(1,0,0,1,0,0)">
            <g id="svga-group-ears-left" transform="matrix(1,0,0,1,0,0)">
              <path id="SvgjsPath3630" d="M45.671 84.344c-1.485-2.462-6.327-9.199-10.031-8.254 -3.012 0.772-2.973 4.971-3.206 7.455 -0.34 3.644-0.464 9.992 0.525 12.568 0.951 2.473 3.96 7.252 5.828 9.075 2.299 2.235 5.97 9.358 6.422 10.097 0.711 1.168 2.137 2.84 4.325 2.708 3.071-0.185 5.724-3.087 5.965-4.485C56.8 105.918 49.536 90.75 45.671 84.344z" fill="#d9b8af" stroke="#ab6957" stroke-width="1.5" opacity="1"/>
              <path id="SvgjsPath3631" d="M44.2 99.341c-0.143-0.563 0.007-1.513 0.154-2.429 0.133-0.835 0.258-1.624 0.182-2.182 -0.289-2.09-1.915-6.06-2.976-8.212 -1.223-2.476-3.199-5.595-5.679-6.399 -1.024-0.333-1.699 0.065-2.089 0.468 -0.288 0.296-0.353 0.645-0.259 0.687 0.095 0.041 0.307-0.248 0.617-0.519 0.254-0.222-0.508-0.04 0 0 -0.205 1.04-0.865 6.302-0.41 10.143 0.358 3.022 1.05 5.279 1.263 5.617 0.031 0.356 0.083 0.705 0.16 1.043 1.002 4.41 7.518 10.177 9.034 11.82 0.28 0.303 0.574 0.483 0.646 0.409s-0.101-0.373-0.379-0.678c-1.498-1.632-7.971-7.381-8.939-11.635 -1.027-4.514 3.912-11.207 4.699-12.623 0.401 0.665 0.742 1.303 1.004 1.835 0.207 0.417 0.434 0.906 0.67 1.435 -0.463 0.738-5.118 6.127-3.934 10.441 0.438 1.591 3.822 3.642 5.131 4.203 0.72 0.31 0.99 0.772 1.304 1.306 0.364 0.624 0.033 2.229 1.23 2.739 0.244 0.104 0.464 0.146 0.659 0.146 0.338 0 0.594-0.13 0.783-0.284 0.02 0.271 0.019 0.619 0.009 0.941 -0.012 0.418 0.047 0.609 0.148 0.617 0.103 0.009 0.21-0.174 0.223-0.587 0.017-0.51 0.014-1.141-0.077-1.444 -0.269-0.889-1.088-1.894-1.957-2.957C44.563 102.197 44.422 100.213 44.2 99.341zM34.969 95.432c-2.348-6.923 1.283-13.229 1.81-14.179 1.012 0.399 2.562 2.193 3.221 3.235C39.52 85.321 35.067 90.775 34.969 95.432zM45.772 106.464c-1.084-0.462-0.706-1.984-1.056-2.584 -0.318-0.542-0.646-1.102-1.479-1.46 -0.18-0.078-0.379-0.196-0.583-0.332 -2.682-6.075 0.293-8.73 1.039-9.273 0.229 0.742 0.399 1.423 0.476 1.97 0.068 0.5-0.059 1.298-0.181 2.068 -0.153 0.955-0.31 1.944-0.147 2.584 0.244 0.953 0.411 2.97 1.291 4.048 0.781 0.956 1.583 1.942 1.857 2.746C46.871 106.391 46.5 106.775 45.772 106.464z" fill="#ab6957" stroke-width="none" opacity="1" stroke="none"/>
            </g>
          </g>
          <g id="svga-group-ears-right-move" transform="matrix(1,0,0,1,0,0)">
            <g id="svga-group-ears-right" transform="matrix(1,0,0,1,0,0)">
              <path id="SvgjsPath3632" d="M154.066 84.344c1.486-2.462 6.328-9.199 10.031-8.254 3.012 0.772 2.973 4.971 3.207 7.455 0.34 3.644 0.463 9.992-0.525 12.568 -0.951 2.473-3.961 7.252-5.828 9.075 -2.299 2.235-5.971 9.358-6.422 10.097 -0.711 1.168-2.137 2.84-4.326 2.708 -3.07-0.185-5.723-3.087-5.965-4.485C142.938 105.918 150.203 90.75 154.066 84.344z" fill="#d9b8af" stroke="#ab6957" stroke-width="1.5" opacity="1"/>
              <path id="SvgjsPath3633" d="M154.322 103.243c-0.869 1.063-1.688 2.068-1.957 2.957 -0.092 0.304-0.094 0.935-0.078 1.444 0.014 0.413 0.121 0.596 0.225 0.587 0.102-0.008 0.16-0.199 0.148-0.617 -0.01-0.322-0.012-0.67 0.008-0.941 0.189 0.154 0.445 0.284 0.783 0.284 0.195 0 0.416-0.042 0.66-0.146 1.195-0.511 0.865-2.116 1.229-2.739 0.314-0.534 0.584-0.997 1.305-1.306 1.309-0.561 4.693-2.611 5.131-4.203 1.184-4.314-3.471-9.704-3.934-10.441 0.234-0.529 0.463-1.018 0.668-1.435 0.264-0.532 0.604-1.171 1.006-1.835 0.787 1.416 5.725 8.108 4.699 12.623 -0.969 4.254-7.441 10.003-8.939 11.635 -0.279 0.305-0.453 0.604-0.381 0.678 0.074 0.074 0.367-0.106 0.646-0.409 1.516-1.643 8.031-7.41 9.033-11.82 0.078-0.338 0.131-0.687 0.162-1.043 0.211-0.337 0.904-2.594 1.262-5.617 0.455-3.841-0.205-9.103-0.41-10.143 0.508-0.04-0.254-0.222 0 0 0.311 0.271 0.523 0.56 0.617 0.519 0.094-0.042 0.029-0.39-0.258-0.687 -0.391-0.403-1.066-0.801-2.09-0.468 -2.48 0.804-4.457 3.923-5.68 6.399 -1.061 2.152-2.686 6.122-2.975 8.212 -0.076 0.558 0.049 1.347 0.182 2.182 0.146 0.916 0.297 1.866 0.154 2.429C155.316 100.213 155.176 102.197 154.322 103.243zM159.738 84.488c0.66-1.042 2.209-2.835 3.221-3.235 0.527 0.95 4.158 7.256 1.811 14.179C164.672 90.775 160.219 85.321 159.738 84.488zM152.75 106.229c0.273-0.804 1.076-1.79 1.857-2.746 0.879-1.078 1.047-3.095 1.291-4.048 0.162-0.64 0.006-1.629-0.146-2.584 -0.123-0.77-0.25-1.568-0.182-2.068 0.076-0.547 0.246-1.228 0.475-1.97 0.746 0.543 3.721 3.199 1.039 9.273 -0.203 0.136-0.402 0.254-0.584 0.332 -0.832 0.358-1.16 0.918-1.479 1.46 -0.35 0.6 0.029 2.123-1.055 2.584C153.238 106.775 152.867 106.391 152.75 106.229z" fill="#ab6957" stroke-width="none" opacity="1" stroke="none"/>
            </g>
          </g>
          <g id="svga-group-faceshape-wrap" transform="matrix(1,0,0,1,0,0)">
            <g id="svga-group-faceshape-single">
              <path id="SvgjsPath3762" d="M100.002 0.867C66.384 0.92 39.082 28.536 39.134 62.56c0.009 5.403 0.704 10.642 2.002 15.634h0.001c0.012 0.054 10.289 31.434 12.948 44.055 2.38 11.298 12.959 20.462 17.72 25.456 5.47 5.742 12.307 14.237 28.197 14.162 15.889 0.075 22.727-8.42 28.197-14.162 4.761-4.994 15.34-14.158 17.72-25.456 2.659-12.621 12.937-44 12.947-44.055h0.002c1.298-4.992 1.994-10.231 2.002-15.634C160.923 28.536 133.62 0.92 100.002 0.867z" fill="#d9b8af" stroke-width="none" opacity="1" stroke="none"/>
              <path id="SvgjsPath3763" d="M133.47 11.063c14.604 11.197 24.131 29.487 24.1 50.155 -0.008 5.403-0.664 10.643-1.892 15.634h-0.002c-0.011 0.054-9.73 31.432-12.246 44.052 -2.251 11.3-12.256 20.462-16.76 25.458 -5.173 5.742-11.64 14.237-26.667 14.162 -15.028 0.075-21.495-8.42-26.668-14.162 -4.502-4.996-14.508-14.158-16.759-25.458 -2.516-12.62-12.235-43.998-12.247-44.052h-0.001c-1.228-4.992-1.885-10.231-1.893-15.634 -0.03-20.668 9.497-38.958 24.101-50.154 -16.522 11.041-27.433 29.982-27.4 51.496 0.009 5.403 0.704 10.642 2.002 15.634h0.001c0.012 0.054 10.289 31.434 12.948 44.055 2.38 11.298 12.959 20.462 17.72 25.456 5.47 5.742 12.307 14.237 28.197 14.162 15.889 0.075 22.727-8.42 28.197-14.162 4.761-4.994 15.34-14.158 17.72-25.456 2.659-12.621 12.937-44 12.947-44.055h0.002c1.298-4.992 1.994-10.231 2.002-15.634C160.903 41.046 149.992 22.104 133.47 11.063z" fill="#d1a99e" stroke-width="none" opacity="1" stroke="none"/>
              <path id="SvgjsPath3764" d="M100.002 0.867C66.384 0.92 39.082 28.536 39.134 62.56c0.009 5.403 0.704 10.642 2.002 15.634h0.001c0.012 0.054 10.289 31.434 12.948 44.055 2.38 11.298 12.959 20.462 17.72 25.456 5.47 5.742 12.307 14.237 28.197 14.162 15.889 0.075 22.727-8.42 28.197-14.162 4.761-4.994 15.34-14.158 17.72-25.456 2.659-12.621 12.937-44 12.947-44.055h0.002c1.298-4.992 1.994-10.231 2.002-15.634C160.923 28.536 133.62 0.92 100.002 0.867z" fill="none" stroke="#ab6957" stroke-width="1.5" opacity="1"/>
            </g>
          </g>
          <g id="svga-group-mouth-single-move" transform="matrix(1,0,0,1,0,0)">
            <g id="svga-group-mouth-single" transform="matrix(1,0,0,1,0,0)">
              <path id="SvgjsPath3622" d="M96.227 139.237l8.297-0.207C103.563 143.5 96.884 142.858 96.227 139.237z" fill="url(#SvgjsLinearGradient3623)" opacity="1"/>
              <path id="SvgjsPath3626" d="M96.343 139.52c-0.371-0.05-0.315-0.579 0.08-0.542 0.043 0.006 4.308 0.546 7.878-0.215 0.386-0.075 0.5 0.455 0.13 0.534C101.634 139.895 98.015 139.755 96.343 139.52zM100.083 135.95c-1.503 0-2.96-0.521-4.424-0.776 -1.64-0.287-3.274-0.041-4.915 0.104 -1.676 0.149-5.333-0.013-6.365-0.666 -0.578-0.367-0.47-1.221 0.181-1.449 0.614-0.22 1.571 0.236 2.191 0.347 2.872 0.515 4.384-0.034 6.902-0.118 3.851-0.116 4.26 1.501 9.064 0.53 5.165-1.044 7.491-0.254 11.197-1.37 0.508-0.154 1.112-0.56 1.645-0.286 0.615 0.318 0.585 1.185-0.049 1.464 -3.406 1.502-7.174 0.895-10.955 1.526C103.073 135.502 101.596 135.95 100.083 135.95z" fill="#ab6957" stroke-width="none" opacity="1" stroke="none"/>
            </g>
          </g>
          <g id="svga-group-eyes-left-move" transform="matrix(1,0,0,1,0,0)">
            <g id="svga-group-eyes-left" transform="matrix(1,0,0,1,0,0)">
              <g id="svga-group-eyesback-left">
                <path id="SvgjsPath3674" d="M78.863 89.23c-4.31 0.755-7.656 0.71-10.688-0.204 -3.127-0.943-7.188-4.825-8.596-8.495 3.715-0.277 11.349-0.597 14.89-0.154 4.688 0.586 9.474 2.406 12.305 5.236 -0.016 0.294-0.053 0.583-0.087 0.872C84.401 88.032 81.166 88.826 78.863 89.23z" fill="url(#SvgjsRadialGradient3675)" opacity="1"/>
              </g>
              <g id="svga-group-eyesiriswrapper-left" transform="matrix(1,0,0,1,0.25,0.25)">
                <g id="svga-group-eyesiriscontrol-left" transform="matrix(1,0,0,1,0,0)">
                  <g id="svga-group-eyesiris-left" transform="matrix(1,0,0,1,0,0)">
                    <path id="SvgjsPath3732" d="M79.788 85.588c-0.869 3.192-4.162 5.073-7.361 4.196 -3.197-0.876-5.084-4.178-4.214-7.371 0.869-3.195 4.168-5.076 7.365-4.198C78.772 79.09 80.659 82.392 79.788 85.588z" fill="#ddb332" stroke="#af8400" stroke-width="0.5" opacity="1"/>
                    <path id="SvgjsPath3733" d="M78.717 82.673c-0.569 0.873-2.036 0.925-3.276 0.117 -1.24-0.808-1.784-2.17-1.215-3.043 0.568-0.872 2.036-0.924 3.276-0.117C78.74 80.439 79.284 81.802 78.717 82.673L78.717 82.673z" fill="url(#SvgjsLinearGradient3734)" opacity="0.7"/>
                  </g>
                </g>
              </g>
              <g id="svga-group-eyesfront-left">
                <path id="SvgjsPath3699" d="M55.8 85.001c0 13.808 8.06 24.999 18 24.999s18-11.191 18-24.999C91.8 71.192 83.74 60 73.8 60S55.8 71.192 55.8 85.001zM59.58 80.531c3.715-0.277 11.349-0.597 14.89-0.154 4.952 0.619 10.04 2.6 12.788 5.71 -2.289 1.82-5.897 2.705-8.395 3.143 -4.31 0.755-7.656 0.71-10.688-0.204C65.049 88.083 60.988 84.201 59.58 80.531z" fill="#d9b8af" stroke-width="none" opacity="1" stroke="none"/>
                <path id="SvgjsPath3700" d="M55.942 83.916c0.027 8.284 8.484 14.962 18.902 14.919 10.414-0.047 18.836-6.796 18.813-15.08 -0.027-8.285-8.486-14.963-18.902-14.92C64.339 68.882 55.919 75.631 55.942 83.916zM59.58 80.531c3.715-0.277 11.349-0.597 14.89-0.154 4.952 0.619 10.04 2.6 12.788 5.71 -2.289 1.82-5.897 2.705-8.395 3.143 -4.31 0.755-7.656 0.71-10.688-0.204C65.049 88.083 60.988 84.201 59.58 80.531z" fill="url(#SvgjsRadialGradient3701)" opacity="1"/>
                <path id="SvgjsPath3705" d="M59.58 80.531c3.715-0.277 11.349-0.597 14.89-0.154 4.952 0.619 10.04 2.6 12.788 5.71 -2.289 1.82-5.897 2.705-8.395 3.143 -4.31 0.755-7.656 0.71-10.688-0.204C65.049 88.083 60.988 84.201 59.58 80.531z" fill="url(#SvgjsRadialGradient3706)" opacity="1"/>
                <path id="SvgjsPath3709" d="M67.563 77.096c10.603-0.48 13.849 1.478 18.339 4.3C78.442 77.023 69.03 77.042 67.563 77.096zM59.597 84.153c2.854 5.494 4.797 4.894 7.531 6.058 0.025 0.009-1.51-0.579-2.664-1.196C61.474 87.296 61.108 86.564 59.597 84.153z" fill="#ab6957" stroke-width="none" opacity="1" stroke="none"/>
                <path id="SvgjsPath3710" d="M58.468 79.966c2.857 5.992 4.761 9.926 14.332 10.071 7.283 0.109 11.794-0.564 15.584-3.374 -3.395-5.194-7.754-6.771-13.57-7.358C68.915 78.709 58.468 79.966 58.468 79.966zM60.505 80.827c3.467-0.258 10.59-0.557 13.895-0.144 4.621 0.577 9.369 2.426 11.934 5.328 -2.137 1.699-5.504 2.524-7.834 2.933 -4.021 0.705-7.145 0.663-9.973-0.19C65.608 87.875 61.819 84.252 60.505 80.827z" fill="#000000" stroke-width="none" opacity="1" stroke="none"/>
              </g>
            </g>
          </g>
          <g id="svga-group-eyes-right-move" transform="matrix(1,0,0,1,0,0)">
            <g id="svga-group-eyes-right" transform="matrix(1,0,0,1,0,0)">
              <g id="svga-group-eyesback-right">
                <path id="SvgjsPath3682" d="M120.737 89.23c4.31 0.755 7.656 0.71 10.688-0.204 3.127-0.943 7.188-4.825 8.596-8.495 -3.715-0.277-11.349-0.597-14.89-0.154 -4.688 0.586-9.474 2.406-12.305 5.236 0.016 0.294 0.053 0.583 0.087 0.872C115.199 88.032 118.435 88.826 120.737 89.23z" fill="url(#SvgjsRadialGradient3683)" opacity="1"/>
              </g>
              <g id="svga-group-eyesiriswrapper-right" transform="matrix(1,0,0,1,-0.25,0.25)">
                <g id="svga-group-eyesiriscontrol-right" transform="matrix(1,0,0,1,0,0)">
                  <g id="svga-group-eyesiris-right" transform="matrix(1,0,0,1,0,0)">
                    <path id="SvgjsPath3737" d="M131.788 85.588c-0.869 3.192-4.162 5.073-7.362 4.196 -3.196-0.876-5.084-4.178-4.214-7.371 0.869-3.195 4.169-5.076 7.365-4.198C130.772 79.09 132.658 82.392 131.788 85.588z" fill="#ddb332" stroke="#af8400" stroke-width="0.5" opacity="1"/>
                    <path id="SvgjsPath3738" d="M130.717 82.673c-0.569 0.873-2.036 0.925-3.276 0.117 -1.239-0.808-1.784-2.17-1.215-3.043 0.568-0.872 2.035-0.924 3.275-0.117C130.74 80.439 131.284 81.802 130.717 82.673L130.717 82.673z" fill="url(#SvgjsLinearGradient3739)" opacity="0.7"/>
                  </g>
                </g>
              </g>
              <g id="svga-group-eyesfront-right">
                <path id="SvgjsPath3720" d="M125.801 60c-9.94 0-18 11.193-18 25.001 0 13.808 8.06 24.999 18 24.999s18-11.191 18-24.999C143.801 71.192 135.741 60 125.801 60zM131.425 89.026c-3.031 0.914-6.378 0.959-10.688 0.204 -2.497-0.438-6.105-1.323-8.395-3.143 2.748-3.11 7.836-5.091 12.788-5.71 3.541-0.443 11.175-0.123 14.89 0.154C138.612 84.201 134.552 88.083 131.425 89.026z" fill="#d9b8af" stroke-width="none" opacity="1" stroke="none"/>
                <path id="SvgjsPath3721" d="M124.846 68.835c-10.416-0.043-18.875 6.635-18.902 14.92 -0.023 8.284 8.398 15.033 18.813 15.08 10.418 0.043 18.875-6.635 18.902-14.919C143.682 75.631 135.262 68.882 124.846 68.835zM131.425 89.026c-3.031 0.914-6.378 0.959-10.688 0.204 -2.497-0.438-6.105-1.323-8.395-3.143 2.748-3.11 7.836-5.091 12.788-5.71 3.541-0.443 11.175-0.123 14.89 0.154C138.612 84.201 134.552 88.083 131.425 89.026z" fill="url(#SvgjsRadialGradient3722)" opacity="1"/>
                <path id="SvgjsPath3726" d="M140.021 80.531c-3.715-0.277-11.349-0.597-14.89-0.154 -4.952 0.619-10.04 2.6-12.788 5.71 2.289 1.82 5.897 2.705 8.395 3.143 4.31 0.755 7.656 0.71 10.688-0.204C134.552 88.083 138.612 84.201 140.021 80.531z" fill="url(#SvgjsRadialGradient3727)" opacity="1"/>
                <path id="SvgjsPath3730" d="M113.697 81.396c4.491-2.822 7.736-4.781 18.34-4.3C130.57 77.042 121.158 77.023 113.697 81.396zM135.137 89.016c-1.154 0.617-2.689 1.205-2.664 1.196 2.734-1.164 4.678-0.564 7.531-6.058C138.492 86.564 138.127 87.296 135.137 89.016z" fill="#ab6957" stroke-width="none" opacity="1" stroke="none"/>
                <path id="SvgjsPath3731" d="M124.787 79.305c-5.816 0.587-10.176 2.165-13.57 7.358 3.79 2.809 8.301 3.483 15.584 3.374 9.57-0.145 11.474-4.079 14.331-10.071C141.132 79.966 130.686 78.709 124.787 79.305zM131.074 88.754c-2.828 0.853-5.951 0.895-9.973 0.19 -2.33-0.409-5.697-1.234-7.834-2.933 2.564-2.902 7.313-4.751 11.934-5.328 3.305-0.413 10.428-0.114 13.895 0.144C137.781 84.252 133.992 87.875 131.074 88.754z" fill="#000000" stroke-width="none" opacity="1" stroke="none"/>
              </g>
            </g>
          </g>
          <g id="svga-group-facehighlight-single">
            <path id="SvgjsPath3484" d="M141 113.974c0.035 22.622-18.292 40.994-40.938 41.025 -22.642 0.037-41.028-18.273-41.063-40.9 -0.035-22.62 18.292-41.064 40.937-41.1C122.579 72.964 140.967 91.349 141 113.974z" fill="url(#SvgjsRadialGradient3485)" opacity="1"/>
            <path id="SvgjsPath3488" d="M137.5 53.999c0 20.711-16.789 37.5-37.499 37.5 -20.711 0-37.501-16.789-37.501-37.5s16.79-37.5 37.501-37.5C120.711 16.499 137.5 33.288 137.5 53.999z" fill="url(#SvgjsRadialGradient3489)" opacity="1"/>
          </g>
          <g id="svga-group-eyebrows-left-move" transform="matrix(1,0,0,1,0,0)">
            <g id="svga-group-eyebrows-left-rotate" transform="matrix(1,0,0,1,0,0)">
              <g id="svga-group-eyebrows-left" transform="matrix(1,0,0,1,0,0)">
                <path id="SvgjsPath3742" d="M56.113 72.739c32.178-9.407 39.48 9.836 32.802 3.849C81.977 70.368 65.958 70.92 56.113 72.739z" fill="#ddbc9b" stroke-width="none" opacity="1" stroke="none"/>
              </g>
            </g>
          </g>
          <g id="svga-group-eyebrows-right-move" transform="matrix(1,0,0,1,0,0)">
            <g id="svga-group-eyebrows-right-rotate" transform="matrix(1,0,0,1,0,0)">
              <g id="svga-group-eyebrows-right" transform="matrix(1,0,0,1,0,0)">
                <path id="SvgjsPath3743" d="M143.889 72.731c-9.304-1.701-22.773-2.38-30.946 2.53 -1.01 0.606-5.017 4.041-3.951 1.625C110.929 72.486 123.744 66.882 143.889 72.731z" fill="#ddbc9b" stroke-width="none" opacity="1" stroke="none"/>
              </g>
            </g>
          </g>
          <g id="svga-group-nose-single-move" transform="matrix(1,0,0,1,0,0)">
            <g id="svga-group-nose-single" transform="matrix(1,0,0,1,0,0)">
              <path id="SvgjsPath3747" d="M100.729 120.838c-0.354 0.161-1.185 0.161-1.448-0.103 0 0-6.296-2.153-5.498-4.215 1.264-3.262 12.727-0.761 12.717 0C106.475 118.462 100.729 120.838 100.729 120.838z" fill="#ca9b8e" stroke-width="none" opacity="1" stroke="none"/>
              <path id="SvgjsPath3748" d="M92.215 113.609c0 0 5.448-18.624 6.008-22.61 1.063 6.47-1.503 20.873-1.774 23.812 -0.329 3.569 3.455 5.688 3.455 5.688 0.293 0.371-0.061 0.602-0.516 0.456l-6.631-2.559C91.186 117.061 91.186 115.79 92.215 113.609zM103.176 116.911c0.915 0.207 1.106 0.576 1.035 0.957 -0.069 0.385-0.462 0.911-1.288 0.43 -0.907-0.526-2.619-0.767-2.619-0.767S102.261 116.701 103.176 116.911z" fill="#ab6957" stroke-width="none" opacity="1" stroke="none"/>
            </g>
          </g>
          <g id="svga-group-beardwrap" transform="matrix(1,0,0,1,0,0)">
            <g id="svga-group-beard-single-move" transform="matrix(1,0,0,1,0,0)">
              <g id="svga-group-beard-single" transform="matrix(1,0,0,1,0,0)">
                <path id="SvgjsPath3502" d="M100,18.13L100,18.13L100,18.13L100,18.13z" fill="#2a232b" stroke-width="none" opacity="1"/>
              </g>
            </g>
          </g>
          <g id="svga-group-mustache-single-move" transform="matrix(1,0,0,1,0,0)">
            <g id="svga-group-mustache-single" transform="matrix(1,0,0,1,0,0)">
              <path id="SvgjsPath3500" d="M100,18.13L100,18.13L100,18.13L100,18.13z" fill="#2a232b" stroke-width="none" opacity="1"/>
            </g>
          </g>
          <g id="svga-group-hair-front" transform="matrix(1,0,0,1,0,0)">
            <path id="SvgjsPath3654" d="M45.777 90.313c-2.998-2.502-6.749-8.939-8.423-17.962 -0.356-1.849-0.61-3.75-0.88-5.763 -1.131-8.446-3.555-18.289-1.878-28.373 2.013-12.337 11.271-25.693 23.036-33.237 18.191-11.772 64.171-17.033 73.754-1.537 5.559-0.203 11.557 1.249 15.699 4.471 13.709 10.284 19.01 45.211 15.211 62.559 -2.528 11.847-3.191 14.954-8.264 19.599 1.812-54.323-0.99-39.665-3.306-54.253 -2.715-1.99-3.727-1.168-7.909-3.542 -8.318-6.142-7.915-8.602-11.683-12.898 -3.356 3.969-8.181 7.463-11.907 9.077 0.944-1.547 1.749-3.282 2.282-4.398l-0.446-0.373c-3.129 2.262-9.451 5.478-13.336 5.823 2.087-2.565 1.843-2.242 2.677-3.805 -3.116 1.916-6.427 3.217-10.604 3.583 3.935-1.944 5.699-3.274 8.751-5.817l-0.279-0.518c-21.191 6.437-26.218 7.895-41.755 10.651 -13.012 1.627-8.248 0.252-12.968 0.252 -7.593 0-8.798 22.789-8.47 30.387C45.925 85.479 44.837 81.343 45.777 90.313z" fill="#ddbc9b" stroke-width="none" opacity="1" stroke="none"/>
            <path id="SvgjsPath3655" d="M162.296 70.471c-2.528 11.847-3.191 14.954-8.264 19.599 1.812-54.323-0.99-39.665-3.306-54.253 -2.715-1.99-3.727-1.168-7.909-3.542 -8.318-6.142-7.915-8.602-11.683-12.898 -3.356 3.969-8.181 7.463-11.907 9.077 0.944-1.547 1.749-3.282 2.282-4.398l-0.446-0.373c-3.129 2.262-9.451 5.478-13.336 5.823 2.087-2.565 1.843-2.242 2.677-3.805 -3.116 1.916-6.427 3.217-10.604 3.583 3.935-1.944 5.699-3.274 8.751-5.817l-0.279-0.518c-21.191 6.437-26.218 7.895-41.755 10.651 -13.012 1.627-8.248 0.252-12.968 0.252 -7.593 0-8.798 22.789-8.47 30.387 0.846 21.241-0.242 17.104 0.698 26.075 -2.998-2.502-6.749-8.939-8.423-17.962 -0.356-1.849-0.61-3.75-0.88-5.763 -1.131-8.446-3.555-18.289-1.878-28.373 1.59-9.746 13.727-24.08 22.024-31.729 -25.5 23.75-18 50.252-13.75 71.5C41.619 59.235 38 29 55 28c23 0 48.869-3.265 64.869-19.265C118.869 15.735 118 17 113 22c4-3 9-5 11-10 -1 4-1 7-4 10 3-2 6-5 9-8 0 3-2 6-3 9 2-5 8-8 9-13 -3 13 12.369 19.985 17.119 22.735 6.5 9 6.75 28 5.25 43.75 5.5-18 3-48.75-13.25-70C161.869 19.485 165.6 55.386 162.296 70.471zM60.369 19.985c12.207-0.359 21.165-2.337 34.25-9.75C82.032 15.751 74.067 18.383 60.369 19.985zM93.619 15.735c6.46-2.681 10.955-8.497 18.25-10.25C105.146 7.818 100.471 13.67 93.619 15.735zM54.869 19.485c4.629-8.324 14.52-15.222 27-16.25C71.713 5.123 60.837 10.953 54.869 19.485z" fill="#cea57c" stroke-width="none" opacity="1" stroke="none"/>
            <path id="SvgjsPath3656" d="M86.619 0c13.085-5.594 24.996-5.023 37.5 1.985 -13.123-5.605-23.154-4.532-23.154-4.532C98.577-2.36 94.759-2.452 86.619 0zM138.119 7.985c4.139 1.594 5.866 4.016 8.383 7.511 3.685 5.954 4.716 8.533 6.863 14.489C151.28 21.431 146.603 10.292 138.119 7.985zM114.619 7.735c-7.115 6.003-12.274 9.237-26.5 14C99.361 19.065 106.526 15.916 114.619 7.735zM137.619 13.985c2.067 7.036 5.876 10.957 11.75 14.5C143.909 24.378 140.339 20.566 137.619 13.985zM58.619 10.235c0 0-0.486 0.36-1.287 0.952 -9.145 6.479-16.294 18.86-16.463 34.548C42.864 30.127 49.049 19.143 58.619 10.235zM63.369 14.735c7.757-4.055 11.339-4.087 24.25-6.25C76.476 9.262 70.964 9.793 63.369 14.735zM84.417 18.964c-4.565 2.29-15.277 4.855-15.277 4.74 -3.757 0.834-10.27 2.281-10.27 2.281 2.522-0.319 6.849-0.825 10.418-1.591 0 0.135 8.796-1.985 11.379-3.319 2.836-1.338 1.875-0.813 4.703-2.59C85.369 18.485 85.008 18.667 84.417 18.964z" fill="#ecd5bd" stroke-width="none" opacity="1" stroke="none"/>
            <path id="SvgjsPath3657" d="M147.27 7.675c-4.229-3.289-10.323-4.741-15.721-4.54 -4.611-7.454-19.151-9.598-27.97-9.69 -13.304-0.138-34.324 3.653-46.11 11.28 -10.968 7.032-21.023 20.286-23.17 33.44 -1.284 7.721-0.178 15.721 1.13 23.38 0.64 3.7 0.97 7.43 1.63 10.86 1.897 10.227 6.295 16.626 9.09 18.57 -1.065-9.855 0.097-4.998-0.77-26.75 -0.403-9.331 1.305-30.714 8.49-30.06 4.883 0.345 1.014 1.191 12.7-0.271 15.347-2.722 20.366-4.152 41.79-10.659 -3.357 2.798-5.103 4.068-9.6 6.22 -0.01-0.01-0.01 0-0.01 0 -0.14 0.07-0.29 0.14-0.43 0.2 3.719-0.024 8.346-1.305 11.299-3.12 -0.407 0.762-1.632 2.147-2.539 3.3 3.844 0 10.74-3.438 14.16-5.91 -0.48 1-1.603 3.462-2.811 5.21 1.141-0.57 3.874-1.313 9.33-5.93 1.11-0.93 2.38-2.19 3.38-3.37 3.349 3.818 3.148 6.516 11.53 12.7 4.158 2.36 5.282 1.625 7.78 3.45 2.206 14.448 5.134-0.795 3.26 54.78 5.6-4.96 6.275-8.026 8.88-20.23C166.297 53.602 161.249 18.163 147.27 7.675zM160.949 70.325c-2.216 12.286-2.402 14.36-6.88 19.22 0.814-10.8 1.53-20.459 1.319-31.34 -0.444-16.061-2.58-13.048-4.1-22.72 -2.878-2.021-4.273-1.655-6.92-2.85 -0.46-0.17-0.84-0.46-1.27-0.68 -8.392-5.824-8.398-8.604-11.83-12.27 0.971-1.114 1.813-2.391 2.09-2.94 -1.509 2.264-7.977 8.239-14.11 11.63 1.059-1.676 1.864-3.305 2.44-4.78 1.735-1.212 2.92-2.358 3.92-3.35 -3.419 2.84-12.225 7.96-17.75 9.07 0.174-0.179 1.875-1.826 2.516-3.074 1.355-0.542 5.016-2.779 6.304-4.203 -6.304 4.203-13.475 6.72-15.979 7.136 3.064-1.149 7.04-4.731 9.08-6.36 1.971-1.574 2.353-2.206 4.399-4.28 -1.344 0.938-3.44 2.993-6.056 4.097 -1.547 0.653-43.89 12.498-51.254 10.574 -1.478-0.37-3.149-0.818-4.62-0.39 -11.8 5.076-7.461 37.634-7.3 47.63 0.136 8.423 0.74 9.89 0.74 9.89 -7.751-7.36-8.089-23.554-8.9-29.18 -1.028-7.456-1.923-15.371-0.55-22.77 2.24-12.64 11.912-25.407 22.26-32.06 15.469-10.04 61.594-18.533 73.04-2.83C159.954 3.495 163.94 50.271 160.949 70.325z" fill="#af7b46" stroke-width="none" opacity="1" stroke="none"/>
          </g>
          <g id="svga-group-glasses-single-move" transform="matrix(1,0,0,1,0,0)">
            <g id="svga-group-glasses-single" transform="matrix(1,0,0,1,0,0)">
              <path id="SvgjsPath3744" d="M144.81 91.54C142.14 98.8 135.17 104 127 104c-10.48 0-19-8.52-19-19 0-3.42 0.92-6.62 2.51-9.4C128.02 74.06 138.37 78.97 144.81 91.54zM56.51 75.6C54.92 78.38 54 81.58 54 85c0 10.48 8.52 19 19 19 8.17 0 15.14-5.2 17.81-12.46C84.37 78.97 74.02 74.06 56.51 75.6z" fill="#ffffff" stroke-width="none" opacity="0.2"/>
              <path id="SvgjsPath3745" d="M110.51 75.6c3.28-5.73 9.43-9.6 16.49-9.6 10.48 0 19 8.52 19 19 0 2.3-0.43 4.5-1.19 6.54C138.37 78.97 128.02 74.06 110.51 75.6zM90.81 91.54C91.57 89.5 92 87.3 92 85c0-10.48-8.52-19-19-19 -7.06 0-13.22 3.88-16.49 9.6C74.02 74.06 84.37 78.97 90.81 91.54z" fill="#ffffff" stroke-width="none" opacity="0.4"/>
              <path id="SvgjsPath3746" d="M156.69 79.96l-9.77 3.44C146.1 73.1 137.51 65 127 65c-9.41 0-17.28 6.51-19.41 15.26 -0.01 0-0.01-0.01-0.02-0.02 -1.69-1.69-4.97-2.51-7.57-2.51s-5.88 0.83-7.57 2.51c-0.01 0-0.01 0.01-0.02 0.02C90.28 71.5 82.41 65 73 65c-10.51 0-19.1 8.11-19.92 18.4l-9.77-3.44v2.88l9.76 3.43C53.73 96.72 62.39 105 73 105c11.05 0 20-8.95 20-20 0-0.31-0.03-0.62-0.05-0.93 0.01 0 0.02 0 0.03 0 0-2.39 3.6-4.68 7.02-4.68s7.02 2.3 7.02 4.68c0.01 0 0.02 0 0.03 0C107.03 84.38 107 84.69 107 85c0 11.05 8.95 20 20 20 10.61 0 19.27-8.27 19.94-18.72l9.76-3.43V79.96zM73 103.5c-10.22 0-18.5-8.28-18.5-18.5 0-10.22 8.28-18.5 18.5-18.5S91.5 74.78 91.5 85C91.5 95.22 83.22 103.5 73 103.5zM127 103.5c-10.22 0-18.5-8.28-18.5-18.5 0-10.22 8.28-18.5 18.5-18.5s18.5 8.28 18.5 18.5C145.5 95.22 137.22 103.5 127 103.5z" fill="#604ab3" stroke-width="none" opacity="1" stroke="none"/>
            </g>
          </g>
        </g>
      </g>
    </g>
  </g>
</svg>
